<svg t="1555407613475" width="128" height="128" viewBox="0 0 1024 1024" xmlns="http://www.w3.org/2000/svg" p-id="4809" xmlns:xlink="http://www.w3.org/1999/xlink" width="200" height="200"><defs><style type="text/css"></style></defs><path d="M789.24 800l-15.56-57.3a514.53 514.53 0 0 1-17.41-132.3v-103c0-105.67-74.55-194.35-173.88-215.86v-18a28.85 28.85 0 0 0-28.87-28.88h-36.25a28.85 28.85 0 0 0-28.88 28.88v18C389.06 313 314.52 401.71 314.52 507.38v103A505.72 505.72 0 0 1 296.9 742.7L281.54 800h191.9a4.65 4.65 0 0 0-0.2 1.64 62.16 62.16 0 0 0 124.31 0 4.44 4.44 0 0 0-0.21-1.64zM519.11 275.34h32.56V287c-5.32-0.41-10.85-0.62-16.38-0.62s-10.85 0.21-16.18 0.62zM535.29 833A31.46 31.46 0 0 1 504 801.68a4.65 4.65 0 0 1 0.2-1.64h62.46a4.44 4.44 0 0 1 0.21 1.64A31.51 31.51 0 0 1 535.29 833z m-213.61-63.68l4.92-18.64a532.27 532.27 0 0 0 18.64-140.28v-103c0-88.68 61-163.43 143.15-184.52a195.9 195.9 0 0 1 46.9-5.74 189.09 189.09 0 0 1 47.1 5.94c82.13 20.92 143.16 95.62 143.16 184.3v103A540.49 540.49 0 0 0 744 750.68l5.12 18.64z"></path></svg>