<?xml version="1.0" standalone="no"?><!DOCTYPE svg PUBLIC "-//W3C//DTD SVG 1.1//EN" "http://www.w3.org/Graphics/SVG/1.1/DTD/svg11.dtd"><svg t="1555409005088" class="icon" style="" viewBox="0 0 1024 1024" version="1.1" xmlns="http://www.w3.org/2000/svg" p-id="8755" xmlns:xlink="http://www.w3.org/1999/xlink" width="200" height="200"><defs><style type="text/css"></style></defs><path d="M744 536c-8.848 0-16 7.152-16 16l0 240-128 0 0-176c0-8.848-7.152-16-16-16l-160 0c-8.848 0-16 7.152-16 16l0 176-128 0 0-240c0-8.848-7.152-16-16-16s-16 7.152-16 16l0 256c0 8.848 7.152 16 16 16l160 0c8.848 0 16-7.152 16-16l0-176 128 0 0 176c0 8.848 7.152 16 16 16l160 0c8.848 0 16-7.152 16-16l0-256C760 543.152 752.848 536 744 536zM821.6 508.688 515.312 202.416c-6.256-6.256-16.368-6.256-22.624 0L186.4 508.688c-6.256 6.256-6.256 16.368 0 22.624s16.384 6.256 22.624 0L504 236.352l294.96 294.96c6.256 6.256 16.384 6.256 22.64 0S827.84 514.944 821.6 508.688zM648 296l48 0 0 48c0 8.832 7.152 16 16 16s16-7.168 16-16l0-64c0-8.832-7.152-16-16-16l-64 0c-8.848 0-16 7.168-16 16S639.152 296 648 296z" p-id="8756"></path></svg>